<?xml version="1.0" encoding="UTF-8" standalone="no"?>
<svg
   xmlns:dc="http://purl.org/dc/elements/1.1/"
   xmlns:cc="http://creativecommons.org/ns#"
   xmlns:rdf="http://www.w3.org/1999/02/22-rdf-syntax-ns#"
   xmlns:svg="http://www.w3.org/2000/svg"
   xmlns="http://www.w3.org/2000/svg"
   xmlns:sodipodi="http://sodipodi.sourceforge.net/DTD/sodipodi-0.dtd"
   xmlns:inkscape="http://www.inkscape.org/namespaces/inkscape"
   inkscape:version="1.0 (4035a4fb49, 2020-05-01)"
   sodipodi:docname="edit-optimized.svg"
   id="svg8"
   version="1.1"
   viewBox="0 0 52.916665 52.916668"
   height="200"
   width="200">
  <defs
     id="defs2" />
  <sodipodi:namedview
     units="px"
     inkscape:window-maximized="1"
     inkscape:window-y="-8"
     inkscape:window-x="-8"
     inkscape:window-height="1017"
     inkscape:window-width="1920"
     showgrid="false"
     inkscape:document-rotation="0"
     inkscape:current-layer="layer1"
     inkscape:document-units="mm"
     inkscape:cy="108.96382"
     inkscape:cx="238.59366"
     inkscape:zoom="1.979899"
     inkscape:pageshadow="2"
     inkscape:pageopacity="0.0"
     borderopacity="1.0"
     bordercolor="#666666"
     pagecolor="#ffffff"
     id="base" />
  <metadata
     id="metadata5">
    <rdf:RDF>
      <cc:Work
         rdf:about="">
        <dc:format>image/svg+xml</dc:format>
        <dc:type
           rdf:resource="http://purl.org/dc/dcmitype/StillImage" />
        <dc:title></dc:title>
      </cc:Work>
    </rdf:RDF>
  </metadata>
  <g
     id="layer1"
     inkscape:groupmode="layer"
     inkscape:label="Layer 1">
    <rect
       y="-1.3877788e-17"
       x="0"
       height="52.916668"
       width="52.916668"
       id="rect1402"
       style="fill:#f1f1f1;fill-opacity:1;stroke:none;stroke-width:0;stroke-linecap:square;stroke-linejoin:bevel;paint-order:markers fill stroke" />
    <path
       sodipodi:nodetypes="cccccccccssccccccs"
       style="fill:#c1c1c1;fill-opacity:1;stroke-width:0.0665969"
       fill="currentColor"
       d="m 29.53517,17.214532 6.146844,6.174082 c 0.258953,0.260109 0.26899,0.673695 0.02233,0.920571 l -14.176346,14.188791 -6.15716,0.525539 c -0.822684,0.07181 -1.538228,-0.646909 -1.465186,-1.471621 L 14.44071,31.379326 28.616915,17.190393 c 0.246643,-0.246885 0.659133,-0.236078 0.918089,0.02402 z M 40.2757,15.968943 36.950138,12.628644 c -1.035867,-1.040391 -2.679082,-1.083424 -3.672366,-0.0961 l -2.298115,2.29953 c -0.246636,0.246891 -0.236618,0.660468 0.02234,0.920571 l 6.146831,6.174084 c 0.258956,0.260108 0.671431,0.270898 0.918092,0.02402 l 2.297832,-2.299813 c 0.9865,-0.994137 0.946494,-2.641855 -0.08934,-3.682279 z"
       id="path1414" />
  </g>
</svg>
